<mxfile host="Electron" modified="2023-07-04T16:32:20.072Z" agent="Mozilla/5.0 (Windows NT 10.0; Win64; x64) AppleWebKit/537.36 (KHTML, like Gecko) draw.io/21.3.7 Chrome/112.0.5615.204 Electron/24.5.0 Safari/537.36" etag="lpTUON-E3aMiPxyvi-tW" version="21.3.7" type="device">
  <diagram name="Страница 1" id="3HIsZ6UoNQsG5Mo04fEh">
    <mxGraphModel dx="1167" dy="709" grid="1" gridSize="10" guides="1" tooltips="1" connect="1" arrows="1" fold="1" page="1" pageScale="1" pageWidth="827" pageHeight="1169" math="0" shadow="0">
      <root>
        <mxCell id="0" />
        <mxCell id="1" parent="0" />
        <mxCell id="bCJHZvcPbfusU-62igLZ-1" value="User" style="swimlane;fontStyle=0;childLayout=stackLayout;horizontal=1;startSize=30;horizontalStack=0;resizeParent=1;resizeParentMax=0;resizeLast=0;collapsible=1;marginBottom=0;whiteSpace=wrap;html=1;" vertex="1" parent="1">
          <mxGeometry x="320" y="20" width="140" height="150" as="geometry">
            <mxRectangle x="330" y="50" width="70" height="30" as="alternateBounds" />
          </mxGeometry>
        </mxCell>
        <mxCell id="bCJHZvcPbfusU-62igLZ-2" value="Логин" style="text;strokeColor=none;fillColor=none;align=left;verticalAlign=middle;spacingLeft=4;spacingRight=4;overflow=hidden;points=[[0,0.5],[1,0.5]];portConstraint=eastwest;rotatable=0;whiteSpace=wrap;html=1;" vertex="1" parent="bCJHZvcPbfusU-62igLZ-1">
          <mxGeometry y="30" width="140" height="30" as="geometry" />
        </mxCell>
        <mxCell id="bCJHZvcPbfusU-62igLZ-3" value="Пароль" style="text;strokeColor=none;fillColor=none;align=left;verticalAlign=middle;spacingLeft=4;spacingRight=4;overflow=hidden;points=[[0,0.5],[1,0.5]];portConstraint=eastwest;rotatable=0;whiteSpace=wrap;html=1;" vertex="1" parent="bCJHZvcPbfusU-62igLZ-1">
          <mxGeometry y="60" width="140" height="30" as="geometry" />
        </mxCell>
        <mxCell id="bCJHZvcPbfusU-62igLZ-4" value="Зарегистрироваться()" style="text;strokeColor=none;fillColor=none;align=left;verticalAlign=middle;spacingLeft=4;spacingRight=4;overflow=hidden;points=[[0,0.5],[1,0.5]];portConstraint=eastwest;rotatable=0;whiteSpace=wrap;html=1;dashed=1;perimeterSpacing=16;" vertex="1" parent="bCJHZvcPbfusU-62igLZ-1">
          <mxGeometry y="90" width="140" height="30" as="geometry" />
        </mxCell>
        <mxCell id="bCJHZvcPbfusU-62igLZ-5" value="Авторизоваться()" style="text;strokeColor=none;fillColor=none;align=left;verticalAlign=middle;spacingLeft=4;spacingRight=4;overflow=hidden;points=[[0,0.5],[1,0.5]];portConstraint=eastwest;rotatable=0;whiteSpace=wrap;html=1;" vertex="1" parent="bCJHZvcPbfusU-62igLZ-1">
          <mxGeometry y="120" width="140" height="30" as="geometry" />
        </mxCell>
        <mxCell id="bCJHZvcPbfusU-62igLZ-6" value="" style="endArrow=none;html=1;rounded=0;" edge="1" parent="bCJHZvcPbfusU-62igLZ-1">
          <mxGeometry width="50" height="50" relative="1" as="geometry">
            <mxPoint y="90" as="sourcePoint" />
            <mxPoint x="140" y="90" as="targetPoint" />
          </mxGeometry>
        </mxCell>
        <mxCell id="bCJHZvcPbfusU-62igLZ-26" style="edgeStyle=orthogonalEdgeStyle;rounded=0;orthogonalLoop=1;jettySize=auto;html=1;exitX=0.5;exitY=0;exitDx=0;exitDy=0;curved=1;endArrow=block;endFill=0;" edge="1" parent="1" source="bCJHZvcPbfusU-62igLZ-13">
          <mxGeometry relative="1" as="geometry">
            <mxPoint x="390" y="170" as="targetPoint" />
          </mxGeometry>
        </mxCell>
        <mxCell id="bCJHZvcPbfusU-62igLZ-13" value="Пользователь" style="swimlane;fontStyle=0;childLayout=stackLayout;horizontal=1;startSize=30;horizontalStack=0;resizeParent=1;resizeParentMax=0;resizeLast=0;collapsible=1;marginBottom=0;whiteSpace=wrap;html=1;" vertex="1" parent="1">
          <mxGeometry x="295" y="230" width="190" height="60" as="geometry">
            <mxRectangle x="330" y="50" width="70" height="30" as="alternateBounds" />
          </mxGeometry>
        </mxCell>
        <mxCell id="bCJHZvcPbfusU-62igLZ-14" value="Работа в личном кабинете" style="text;strokeColor=none;fillColor=none;align=left;verticalAlign=middle;spacingLeft=4;spacingRight=4;overflow=hidden;points=[[0,0.5],[1,0.5]];portConstraint=eastwest;rotatable=0;whiteSpace=wrap;html=1;" vertex="1" parent="bCJHZvcPbfusU-62igLZ-13">
          <mxGeometry y="30" width="190" height="30" as="geometry" />
        </mxCell>
        <mxCell id="bCJHZvcPbfusU-62igLZ-27" style="edgeStyle=orthogonalEdgeStyle;rounded=0;orthogonalLoop=1;jettySize=auto;html=1;exitX=0.5;exitY=0;exitDx=0;exitDy=0;entryX=0.789;entryY=1;entryDx=0;entryDy=0;entryPerimeter=0;curved=1;endArrow=block;endFill=0;" edge="1" parent="1" source="bCJHZvcPbfusU-62igLZ-19" target="bCJHZvcPbfusU-62igLZ-5">
          <mxGeometry relative="1" as="geometry" />
        </mxCell>
        <mxCell id="bCJHZvcPbfusU-62igLZ-19" value="Администратор" style="swimlane;fontStyle=0;childLayout=stackLayout;horizontal=1;startSize=30;horizontalStack=0;resizeParent=1;resizeParentMax=0;resizeLast=0;collapsible=1;marginBottom=0;whiteSpace=wrap;html=1;" vertex="1" parent="1">
          <mxGeometry x="540" y="230" width="240" height="90" as="geometry">
            <mxRectangle x="330" y="50" width="70" height="30" as="alternateBounds" />
          </mxGeometry>
        </mxCell>
        <mxCell id="bCJHZvcPbfusU-62igLZ-20" value="Работа с заданиями" style="text;strokeColor=none;fillColor=none;align=left;verticalAlign=middle;spacingLeft=4;spacingRight=4;overflow=hidden;points=[[0,0.5],[1,0.5]];portConstraint=eastwest;rotatable=0;whiteSpace=wrap;html=1;" vertex="1" parent="bCJHZvcPbfusU-62igLZ-19">
          <mxGeometry y="30" width="240" height="30" as="geometry" />
        </mxCell>
        <mxCell id="bCJHZvcPbfusU-62igLZ-21" value="Работа с дополнительным материалом" style="text;strokeColor=none;fillColor=none;align=left;verticalAlign=middle;spacingLeft=4;spacingRight=4;overflow=hidden;points=[[0,0.5],[1,0.5]];portConstraint=eastwest;rotatable=0;whiteSpace=wrap;html=1;" vertex="1" parent="bCJHZvcPbfusU-62igLZ-19">
          <mxGeometry y="60" width="240" height="30" as="geometry" />
        </mxCell>
        <mxCell id="bCJHZvcPbfusU-62igLZ-33" style="edgeStyle=orthogonalEdgeStyle;rounded=0;orthogonalLoop=1;jettySize=auto;html=1;exitX=0.5;exitY=0;exitDx=0;exitDy=0;entryX=0.767;entryY=1.03;entryDx=0;entryDy=0;entryPerimeter=0;endArrow=none;endFill=0;curved=1;" edge="1" parent="1" source="bCJHZvcPbfusU-62igLZ-53" target="bCJHZvcPbfusU-62igLZ-17">
          <mxGeometry relative="1" as="geometry">
            <mxPoint x="445" y="450" as="sourcePoint" />
          </mxGeometry>
        </mxCell>
        <mxCell id="bCJHZvcPbfusU-62igLZ-41" style="edgeStyle=orthogonalEdgeStyle;rounded=0;orthogonalLoop=1;jettySize=auto;html=1;exitX=0.5;exitY=0;exitDx=0;exitDy=0;entryX=0.529;entryY=1.03;entryDx=0;entryDy=0;entryPerimeter=0;endArrow=none;endFill=0;curved=1;" edge="1" parent="1" source="bCJHZvcPbfusU-62igLZ-48" target="bCJHZvcPbfusU-62igLZ-17">
          <mxGeometry relative="1" as="geometry">
            <mxPoint x="200" y="450" as="sourcePoint" />
          </mxGeometry>
        </mxCell>
        <mxCell id="bCJHZvcPbfusU-62igLZ-48" value="Задания" style="swimlane;fontStyle=0;childLayout=stackLayout;horizontal=1;startSize=30;horizontalStack=0;resizeParent=1;resizeParentMax=0;resizeLast=0;collapsible=1;marginBottom=0;whiteSpace=wrap;html=1;" vertex="1" parent="1">
          <mxGeometry x="280" y="450" width="190" height="120" as="geometry">
            <mxRectangle x="330" y="50" width="70" height="30" as="alternateBounds" />
          </mxGeometry>
        </mxCell>
        <mxCell id="bCJHZvcPbfusU-62igLZ-49" value="# id_задания" style="text;strokeColor=none;fillColor=none;align=left;verticalAlign=middle;spacingLeft=4;spacingRight=4;overflow=hidden;points=[[0,0.5],[1,0.5]];portConstraint=eastwest;rotatable=0;whiteSpace=wrap;html=1;" vertex="1" parent="bCJHZvcPbfusU-62igLZ-48">
          <mxGeometry y="30" width="190" height="30" as="geometry" />
        </mxCell>
        <mxCell id="bCJHZvcPbfusU-62igLZ-50" value="Текст" style="text;strokeColor=none;fillColor=none;align=left;verticalAlign=middle;spacingLeft=4;spacingRight=4;overflow=hidden;points=[[0,0.5],[1,0.5]];portConstraint=eastwest;rotatable=0;whiteSpace=wrap;html=1;" vertex="1" parent="bCJHZvcPbfusU-62igLZ-48">
          <mxGeometry y="60" width="190" height="30" as="geometry" />
        </mxCell>
        <mxCell id="bCJHZvcPbfusU-62igLZ-51" value="просмотр заданий" style="text;strokeColor=none;fillColor=none;align=left;verticalAlign=middle;spacingLeft=4;spacingRight=4;overflow=hidden;points=[[0,0.5],[1,0.5]];portConstraint=eastwest;rotatable=0;whiteSpace=wrap;html=1;dashed=1;perimeterSpacing=16;" vertex="1" parent="bCJHZvcPbfusU-62igLZ-48">
          <mxGeometry y="90" width="190" height="30" as="geometry" />
        </mxCell>
        <mxCell id="bCJHZvcPbfusU-62igLZ-57" value="" style="endArrow=none;html=1;rounded=0;exitX=0.072;exitY=0.326;exitDx=0;exitDy=0;exitPerimeter=0;" edge="1" parent="bCJHZvcPbfusU-62igLZ-48" source="bCJHZvcPbfusU-62igLZ-51">
          <mxGeometry width="50" height="50" relative="1" as="geometry">
            <mxPoint x="240" y="-50" as="sourcePoint" />
            <mxPoint x="190" y="94" as="targetPoint" />
          </mxGeometry>
        </mxCell>
        <mxCell id="bCJHZvcPbfusU-62igLZ-53" value="Помощь" style="swimlane;fontStyle=0;childLayout=stackLayout;horizontal=1;startSize=30;horizontalStack=0;resizeParent=1;resizeParentMax=0;resizeLast=0;collapsible=1;marginBottom=0;whiteSpace=wrap;html=1;" vertex="1" parent="1">
          <mxGeometry x="530" y="435" width="190" height="150" as="geometry">
            <mxRectangle x="330" y="50" width="70" height="30" as="alternateBounds" />
          </mxGeometry>
        </mxCell>
        <mxCell id="bCJHZvcPbfusU-62igLZ-54" value="# id_помощи" style="text;strokeColor=none;fillColor=none;align=left;verticalAlign=middle;spacingLeft=4;spacingRight=4;overflow=hidden;points=[[0,0.5],[1,0.5]];portConstraint=eastwest;rotatable=0;whiteSpace=wrap;html=1;" vertex="1" parent="bCJHZvcPbfusU-62igLZ-53">
          <mxGeometry y="30" width="190" height="30" as="geometry" />
        </mxCell>
        <mxCell id="bCJHZvcPbfusU-62igLZ-55" value="# id_задания" style="text;strokeColor=none;fillColor=none;align=left;verticalAlign=middle;spacingLeft=4;spacingRight=4;overflow=hidden;points=[[0,0.5],[1,0.5]];portConstraint=eastwest;rotatable=0;whiteSpace=wrap;html=1;" vertex="1" parent="bCJHZvcPbfusU-62igLZ-53">
          <mxGeometry y="60" width="190" height="30" as="geometry" />
        </mxCell>
        <mxCell id="bCJHZvcPbfusU-62igLZ-56" value="Видео" style="text;strokeColor=none;fillColor=none;align=left;verticalAlign=middle;spacingLeft=4;spacingRight=4;overflow=hidden;points=[[0,0.5],[1,0.5]];portConstraint=eastwest;rotatable=0;whiteSpace=wrap;html=1;" vertex="1" parent="bCJHZvcPbfusU-62igLZ-53">
          <mxGeometry y="90" width="190" height="30" as="geometry" />
        </mxCell>
        <mxCell id="bCJHZvcPbfusU-62igLZ-60" value="" style="endArrow=none;html=1;rounded=0;exitX=0.072;exitY=0.326;exitDx=0;exitDy=0;exitPerimeter=0;" edge="1" parent="bCJHZvcPbfusU-62igLZ-53">
          <mxGeometry width="50" height="50" relative="1" as="geometry">
            <mxPoint y="120" as="sourcePoint" />
            <mxPoint x="190" y="120" as="targetPoint" />
          </mxGeometry>
        </mxCell>
        <mxCell id="bCJHZvcPbfusU-62igLZ-59" value="Просмотр помощи по заданиям" style="text;strokeColor=none;fillColor=none;align=left;verticalAlign=middle;spacingLeft=4;spacingRight=4;overflow=hidden;points=[[0,0.5],[1,0.5]];portConstraint=eastwest;rotatable=0;whiteSpace=wrap;html=1;" vertex="1" parent="bCJHZvcPbfusU-62igLZ-53">
          <mxGeometry y="120" width="190" height="30" as="geometry" />
        </mxCell>
        <mxCell id="bCJHZvcPbfusU-62igLZ-66" style="edgeStyle=orthogonalEdgeStyle;rounded=0;orthogonalLoop=1;jettySize=auto;html=1;exitX=0.5;exitY=0;exitDx=0;exitDy=0;entryX=0.203;entryY=0.977;entryDx=0;entryDy=0;entryPerimeter=0;endArrow=none;endFill=0;curved=1;" edge="1" parent="1" source="bCJHZvcPbfusU-62igLZ-61" target="bCJHZvcPbfusU-62igLZ-17">
          <mxGeometry relative="1" as="geometry" />
        </mxCell>
        <mxCell id="bCJHZvcPbfusU-62igLZ-61" value="Выполненые задания" style="swimlane;fontStyle=0;childLayout=stackLayout;horizontal=1;startSize=30;horizontalStack=0;resizeParent=1;resizeParentMax=0;resizeLast=0;collapsible=1;marginBottom=0;whiteSpace=wrap;html=1;" vertex="1" parent="1">
          <mxGeometry x="65" y="450" width="200" height="120" as="geometry">
            <mxRectangle x="330" y="50" width="70" height="30" as="alternateBounds" />
          </mxGeometry>
        </mxCell>
        <mxCell id="bCJHZvcPbfusU-62igLZ-62" value="# id_выполненного задания" style="text;strokeColor=none;fillColor=none;align=left;verticalAlign=middle;spacingLeft=4;spacingRight=4;overflow=hidden;points=[[0,0.5],[1,0.5]];portConstraint=eastwest;rotatable=0;whiteSpace=wrap;html=1;" vertex="1" parent="bCJHZvcPbfusU-62igLZ-61">
          <mxGeometry y="30" width="200" height="30" as="geometry" />
        </mxCell>
        <mxCell id="bCJHZvcPbfusU-62igLZ-63" value="# id_пользователя" style="text;strokeColor=none;fillColor=none;align=left;verticalAlign=middle;spacingLeft=4;spacingRight=4;overflow=hidden;points=[[0,0.5],[1,0.5]];portConstraint=eastwest;rotatable=0;whiteSpace=wrap;html=1;" vertex="1" parent="bCJHZvcPbfusU-62igLZ-61">
          <mxGeometry y="60" width="200" height="30" as="geometry" />
        </mxCell>
        <mxCell id="bCJHZvcPbfusU-62igLZ-64" value="Просмотр выполненных заданий" style="text;strokeColor=none;fillColor=none;align=left;verticalAlign=middle;spacingLeft=4;spacingRight=4;overflow=hidden;points=[[0,0.5],[1,0.5]];portConstraint=eastwest;rotatable=0;whiteSpace=wrap;html=1;dashed=1;perimeterSpacing=16;" vertex="1" parent="bCJHZvcPbfusU-62igLZ-61">
          <mxGeometry y="90" width="200" height="30" as="geometry" />
        </mxCell>
        <mxCell id="bCJHZvcPbfusU-62igLZ-65" value="" style="endArrow=none;html=1;rounded=0;exitX=0.072;exitY=0.326;exitDx=0;exitDy=0;exitPerimeter=0;entryX=0.933;entryY=0.33;entryDx=0;entryDy=0;entryPerimeter=0;" edge="1" parent="bCJHZvcPbfusU-62igLZ-61" source="bCJHZvcPbfusU-62igLZ-64" target="bCJHZvcPbfusU-62igLZ-64">
          <mxGeometry width="50" height="50" relative="1" as="geometry">
            <mxPoint x="240" y="-50" as="sourcePoint" />
            <mxPoint x="190" y="94" as="targetPoint" />
          </mxGeometry>
        </mxCell>
        <mxCell id="bCJHZvcPbfusU-62igLZ-71" value="" style="endArrow=none;html=1;rounded=0;exitX=0.5;exitY=0;exitDx=0;exitDy=0;" edge="1" parent="1" source="bCJHZvcPbfusU-62igLZ-61" target="bCJHZvcPbfusU-62igLZ-14">
          <mxGeometry width="50" height="50" relative="1" as="geometry">
            <mxPoint x="390" y="360" as="sourcePoint" />
            <mxPoint x="440" y="310" as="targetPoint" />
          </mxGeometry>
        </mxCell>
        <mxCell id="bCJHZvcPbfusU-62igLZ-72" value="" style="endArrow=none;html=1;rounded=0;exitX=0.5;exitY=0;exitDx=0;exitDy=0;" edge="1" parent="1" source="bCJHZvcPbfusU-62igLZ-48" target="bCJHZvcPbfusU-62igLZ-14">
          <mxGeometry width="50" height="50" relative="1" as="geometry">
            <mxPoint x="390" y="360" as="sourcePoint" />
            <mxPoint x="440" y="310" as="targetPoint" />
          </mxGeometry>
        </mxCell>
        <mxCell id="bCJHZvcPbfusU-62igLZ-73" value="" style="endArrow=none;html=1;rounded=0;entryX=0.5;entryY=0;entryDx=0;entryDy=0;" edge="1" parent="1" source="bCJHZvcPbfusU-62igLZ-14" target="bCJHZvcPbfusU-62igLZ-53">
          <mxGeometry width="50" height="50" relative="1" as="geometry">
            <mxPoint x="390" y="360" as="sourcePoint" />
            <mxPoint x="440" y="310" as="targetPoint" />
          </mxGeometry>
        </mxCell>
      </root>
    </mxGraphModel>
  </diagram>
</mxfile>
